<?xml version="1.0"?>
<svg xmlns="http://www.w3.org/2000/svg" xmlns:xlink="http://www.w3.org/1999/xlink" xmlns:svgjs="http://svgjs.com/svgjs" version="1.1" width="512" height="512" x="0" y="0" viewBox="0 0 512 512" style="enable-background:new 0 0 512 512" xml:space="preserve" class=""><g><g xmlns="http://www.w3.org/2000/svg"><path d="m497 31h-482c-8.284 0-15 6.716-15 15v330c0 8.284 6.716 15 15 15h166v60h-15c-8.284 0-15 6.716-15 15s6.716 15 15 15h180c8.284 0 15-6.716 15-15s-6.716-15-15-15h-15v-60h166c8.284 0 15-6.716 15-15v-330c0-8.284-6.716-15-15-15zm-196 420h-90v-60h90zm181-90h-452v-300h452z" fill="#ffffff" data-original="#000000" style="" class=""/><path d="m170 321c60.654 0 110-49.346 110-110s-49.346-110-110-110-110 49.346-110 110 49.346 110 110 110zm78.569-125h-63.569v-63.569c32.102 6.117 57.452 31.467 63.569 63.569zm-93.569-63.569v78.569c0 8.284 6.716 15 15 15h78.569c-7.043 36.965-39.585 65-78.569 65-44.112 0-80-35.888-80-80 0-38.984 28.036-71.525 65-78.569z" fill="#ffffff" data-original="#000000" style="" class=""/><path d="m353.967 256.606c2.813 2.813 6.628 4.394 10.606 4.394s7.793-1.58 10.607-4.394l46.878-46.878c.591 7.742 7.047 13.845 14.941 13.845 8.284 0 15-6.716 15-15v-35c0-8.284-6.716-15-15-15h-35c-8.284 0-15 6.716-15 15 0 7.895 6.103 14.351 13.846 14.942l-36.272 36.271-28.967-28.968c-5.857-5.859-15.354-5.857-21.213 0-5.858 5.857-5.858 15.355 0 21.213z" fill="#ffffff" data-original="#000000" style="" class=""/><path d="m325 321h112c8.284 0 15-6.716 15-15s-6.716-15-15-15h-112c-8.284 0-15 6.716-15 15s6.716 15 15 15z" fill="#ffffff" data-original="#000000" style="" class=""/></g></g></svg>
